<svg xmlns="http://www.w3.org/2000/svg" viewBox="-5 -3 60 60" height="100px">
    <defs><style>.svg-logo{fill:none;stroke:#000;stroke-linecap:round;stroke-linejoin:round;stroke-width:3px;}</style></defs>
    <path class="svg-logo" d="M25.7,52.3c.4-3.5,1.3-13.8-5.1-22.3S.5,14.9,4,15.6s24.1,8.9,32.9,8.3,5.5-9.8-.3-11.4S22.5,17,19.2,25.1s-1.6,18.4,1.2,21.4,6.7-1.1,7.6-1.8-1,1.8-1.9,4.8S25.2,55.8,25.7,52.3Z"/>
    <path class="svg-logo" d="M7.9,3.1c-1.2,3.8,7,11.8,4.9,17.9S-1.9,31.3.7,32.1s20.5-2,27.5.1,3.1,8.8-3.1,8.6S10.2,33.4,6.5,26.7,4,14,9.4,12.4s14.9,1.4,19.1.1,3-6.8-2.9-9.8S9.1-.7,7.9,3.1Z"/>
</svg>
