<svg xmlns="http://www.w3.org/2000/svg" viewBox="0 0 60 60" height="100px">
    <defs>
        <style>.logo-svg{fill:none;stroke:#000;stroke-linecap:round;stroke-linejoin:round;stroke-width:4px;}</style>
    </defs>
<!--    <path class="a"-->
<!--          d="-->
<!--          M16.4,27-->
<!--          c4.5 -1.7, 7.5 -7, 5.5 -11.3-->
<!--          s-9 -7.7 -12 -6.9 -1.8, 5.9.3, 5.6, 5.4 -5.9, 7.9-7.2, 4.2, 1.9, 5.8, 6, 3.1, 9.4, 1.5, 10.9-6.4-.6-11.2-1-9.6,1-9, 2.5-->
<!--          S11.9,28.8,16.4,27-->
<!--          Z"/>-->
        <path class="logo-svg" d="M9.3,4.5c-1.2,3.8,7,11.8,4.9,17.9S-.5,32.7,2.1,33.4s20.5-1.9,27.5.2,3.1,8.8-3.1,8.6S11.6,34.8,7.8,28.1s-2.4-12.7,3-14.3,14.9,1.4,19.1.1,3-6.8-2.9-9.8S10.5.7,9.3,4.5Z"/>
        <path class="logo-svg" d="M27.1,53.7c.4-3.5,1.3-13.8-5.1-22.3S1.9,16.3,5.4,17s24.1,8.9,32.9,8.3,5.5-9.8-.3-11.4S23.9,18.4,20.6,26.5,19,44.9,21.8,47.9s6.7-1.1,7.6-1.8-1,1.8-1.9,4.8S26.6,57.2,27.1,53.7Z"/>
</svg>
