<svg xmlns="http://www.w3.org/2000/svg" viewBox="-3 -3 50 60" height="100px">
    <defs><style>.svg-logo{fill:none;stroke:#000;stroke-linecap:round;stroke-linejoin:round;stroke-width:4px;}</style></defs>
    <path class="svg-logo" d="M7.4,3.1C5,6.9,11,14.9,9.2,21S-2.4,31.3,1.1,32.1s20.3-2,26.4.1,1.4,8.8-5.2,8.6S7,33.4,3,26.7-.1,14,5.2,12.4s15.3,1.4,20.4.1,5.4-6.8.2-9.8S9.8-.7,7.4,3.1Z"/>
    <path class="svg-logo" d="M24.9,52.3C26.8,48.8,28.6,38.5,22,30S.6,14.9,2.7,15.6s21.5,8.9,30.2,8.3,6.9-9.8,2.5-11.4S24,17,21.6,25.1s-.4,18.4,1.6,21.4,3.9-1.1,3.1-1.8-4,1.8-4.7,4.8S23,55.8,24.9,52.3Z"/>
</svg>
